<?xml version="1.0" encoding="utf-8"?>
<svg version="1.2" baseProfile="tiny" id="Layer_1" xmlns="http://www.w3.org/2000/svg" xmlns:xlink="http://www.w3.org/1999/xlink"
	 x="0px" y="0px" viewBox="-418.7 241.3 79.5 79.5" xml:space="preserve">
<circle fill="#557A95" cx="-366.3" cy="275.3" r="7.4"/>
<rect x="-381.1" y="226.9" transform="matrix(-0.7071 0.7071 -0.7071 -0.7071 -448.2944 747.6918)" fill="#FF0000" width="4.2" height="108.2"/>
<path fill="#7395AE" d="M-401,248.5h44c5.8,0,10.5,4.7,10.5,10.5v27.3l-13.1,9l14.4,14.4c1.1-2,1.8-4.2,1.8-6.7v-44
	c0-7.4-6.1-13.5-13.5-13.5h-44c-2.4,0-4.7,0.7-6.7,1.8l2.2,2.2C-404.1,248.9-402.6,248.5-401,248.5z"/>
<path fill="#7395AE" d="M-368.1,301.1L-389,281l-22.5,18v-40c0-1.6,0.4-3.1,1-4.4l-2.2-2.2c-1.1,2-1.8,4.2-1.8,6.7v44
	c0,7.4,6.1,13.5,13.5,13.5h44c2.4,0,4.7-0.6,6.7-1.8l-15.3-15.3L-368.1,301.1z"/>
</svg>
